<?xml version="1.0" standalone="no"?><!DOCTYPE svg PUBLIC "-//W3C//DTD SVG 1.1//EN" "http://www.w3.org/Graphics/SVG/1.1/DTD/svg11.dtd"><svg t="1592809162587" class="icon" viewBox="0 0 1024 1024" version="1.1" xmlns="http://www.w3.org/2000/svg" p-id="28170" xmlns:xlink="http://www.w3.org/1999/xlink" width="200" height="200"><defs><style type="text/css"></style></defs><path d="M236.1 196.9l-34.5-18.7 1.8 65.9 2.1 77.8c2.9-0.3 5.9-0.6 8.8-1 47-6.7 88.6-33.8 113.7-74.2l-91.9-49.8zM268.3 21.2c21.9 11.9 40.8 28.7 55.1 49.2l-122.5 75.2L197 1.9c24.9 0.8 49.4 7.4 71.3 19.3zM764 199.7l20-34.6h121.8L784.2 1024H313.9l-98.3-694.6c10.1-1.4 20-3.8 29.6-7l19.9 141.2H833l37.3-263.9H764zM181.4 2.1l4.1 151.7L52 81.5C79.5 35.3 127.8 5.6 181.4 2.1zM56.7 255.8l129.4-79.3 4.1 151.7c-53.7-0.7-103.6-27.8-133.5-72.4zM45.8 92.9l133.4 72.3-129.3 79.5c-26.3-46.8-27.8-103.6-4.1-151.8z" p-id="28171"></path><path d="M851.7 4.8h113.5v27.5h-97.4l-79.4 134.6-20 34.7-144.3 250-26.6-13.7 138.2-239.3 20-34.7 91.8-159h4.2z" p-id="28172"></path><path d="M756.7 165.1l-20 34.7h-379c2-9.8 3.2-19.7 3.5-29.7 0-1.7 0.1-3.4 0.1-5h395.4z" p-id="28173"></path><path d="M361.3 165.1h405.4l-20 34.7h-389" p-id="28174"></path><path d="M371.3 165.1h405.4l-20 34.7h-389" p-id="28175"></path><path d="M381.3 165.1h405.4l-20 34.7h-389" p-id="28176"></path><path d="M391.3 165.1h405.4l-20 34.7h-389" p-id="28177"></path><path d="M338.6 236.9l-68.7-37.2-64-34.7-0.6-0.3 129.4-79.4c9.9 17.7 16.4 37.1 19.2 57.2 3 22.9 1.3 46.2-5 68.5l-0.3 0.9c-0.3 1.1-0.7 2.3-1.1 3.4-0.3 0.9-0.6 1.7-0.8 2.6-0.2 0.7-0.5 1.5-0.7 2s-0.4 1.1-0.6 1.7c-2 5.2-4.2 10.3-6.8 15.3z" p-id="28178"></path></svg>