<?xml version="1.0" standalone="no"?><!DOCTYPE svg PUBLIC "-//W3C//DTD SVG 1.1//EN" "http://www.w3.org/Graphics/SVG/1.1/DTD/svg11.dtd"><svg t="1592809447169" class="icon" viewBox="0 0 1024 1024" version="1.1" xmlns="http://www.w3.org/2000/svg" p-id="14099" xmlns:xlink="http://www.w3.org/1999/xlink" width="200" height="200"><defs><style type="text/css"></style></defs><path d="M918.125671 504.179894l6.329149 1.441838-6.329149-1.441838" fill="#272536" p-id="14100"></path><path d="M511.812735 0c-100.034321 0-181.15078 80.547501-181.15078 179.89416v316.263013c0 99.345636 81.116459 179.89416 181.15078 179.89416 100.027158 0 181.143617-80.547501 181.143617-179.89416v-316.263013c0-99.346659-81.116459-179.89416-181.143617-179.89416zM202.38336 451.15626c-20.849864 0-37.712927 16.745383-37.712927 37.482683 0 2.623757 0.225127 5.126764 0.795109 7.51823h-0.795109c0 175.10611 131.582851 319.456752 301.910121 341.559143v93.192496h-60.379159c-25.068955 0-45.343721 20.167319-45.343721 45.003983 0 24.833595 20.274766 44.99989 45.343721 44.99989h211.335243c25.062815 0 45.343721-20.167319 45.343721-44.99989 0-24.837688-20.280906-45.003983-45.343721-45.003983h-60.379159v-93.192496c165.308977-21.419845 293.822932-158.242024 301.108872-326.517565 0.457418-2.390443 0.801249-4.900613 0.801249-7.51823 0-0.912789-0.225127-1.707898-0.225127-2.504031 0-1.715061 0.225127-3.305279 0.225127-5.02034h-0.801249c-3.535523-17.089214-18.678408-29.963429-37.030381-29.963429-18.228153 0-33.494858 12.874215-37.026288 29.963429h-0.794086c0 149.021012-121.674177 269.781376-271.721565 269.781376-150.040225 0-271.720541-120.760364-271.720541-269.781376h-0.795109c0.457418-2.390443 0.795109-4.894474 0.795109-7.518231 0.116657-20.736277-16.740266-37.481659-37.59013-37.481659z m0 0" fill="" p-id="14101"></path></svg>