<?xml version="1.0" standalone="no"?><!DOCTYPE svg PUBLIC "-//W3C//DTD SVG 1.1//EN" "http://www.w3.org/Graphics/SVG/1.1/DTD/svg11.dtd"><svg t="1592809680578" class="icon" viewBox="0 0 1024 1024" version="1.1" xmlns="http://www.w3.org/2000/svg" p-id="32305" xmlns:xlink="http://www.w3.org/1999/xlink" width="200" height="200"><defs><style type="text/css"></style></defs><path d="M947.648 535.424 529.6 140.544c-9.856-9.344-25.28-9.344-35.136 0L76.416 535.424c-7.68 7.168-10.112 18.304-6.208 28.096 3.904 9.728 13.312 16.128 23.744 16.128l106.56 0 0 285.248c0 14.144 11.456 25.6 25.6 25.6l177.28 0c14.144 0 25.6-11.456 25.6-25.6L428.992 633.408l166.016 0 0 231.488c0 14.144 11.456 25.6 25.6 25.6l177.28 0c14.144 0 25.6-11.456 25.6-25.6L823.488 579.648l106.56 0c10.496 0 19.904-6.4 23.808-16.128C957.696 553.792 955.2 542.656 947.648 535.424zM783.808 430.72l-0.064-239.552c0-14.144-11.456-25.6-25.6-25.6l-53.12 0c-14.144 0-25.6 11.456-25.6 25.6L679.424 430.72 783.808 430.72z" p-id="32306"></path></svg>