<?xml version="1.0" standalone="no"?><!DOCTYPE svg PUBLIC "-//W3C//DTD SVG 1.1//EN" "http://www.w3.org/Graphics/SVG/1.1/DTD/svg11.dtd"><svg t="1592809488040" class="icon" viewBox="0 0 1070 1024" version="1.1" xmlns="http://www.w3.org/2000/svg" p-id="17541" xmlns:xlink="http://www.w3.org/1999/xlink" width="208.984375" height="200"><defs><style type="text/css"></style></defs><path d="M3.444364 0.930909h1053.323636c2.280727 0 3.397818 1.117091 3.397818 3.444364v1004.916363c0 2.327273-1.117091 3.444364-3.444363 3.444364H3.444364c-2.327273 0-3.444364-2.327273-3.444364-3.444364V4.375273C0 2.048 2.327273 0.884364 3.444364 0.884364z m790.807272 498.408727A78778.647273 78778.647273 0 0 1 374.178909 256.465455c-4.654545-2.327273-10.379636 1.117091-10.379636 5.72509v484.631273c0 5.771636 5.771636 9.216 10.379636 6.935273 140.427636-80.616727 279.738182-162.350545 420.165818-242.920727 4.561455-2.327273 4.561455-9.216 0-11.496728z m67.956364 451.258182h132.375273c2.327273 0 3.444364-2.327273 3.444363-3.490909v-97.838545c0-2.327273-2.327273-3.444364-3.444363-3.444364h-132.375273c-2.327273 0-3.490909 2.327273-3.490909 3.444364v97.838545c0 2.327273 1.163636 3.490909 3.490909 3.490909z m-199.168 0h132.375273c2.327273 0 3.444364-2.327273 3.444363-3.490909v-97.838545c0-2.327273-1.117091-3.444364-3.444363-3.444364h-132.375273c-2.327273 0-3.444364 2.327273-3.444364 3.444364v97.838545c0 2.327273 1.163636 3.490909 3.444364 3.490909z m-597.410909 0h132.375273c2.327273 0 3.444364-2.327273 3.444363-3.490909v-97.838545c0-2.327273-1.163636-3.444364-3.444363-3.444364H65.629091c-2.327273 0-3.490909 2.327273-3.490909 3.444364v97.838545c-1.117091 2.327273 1.163636 3.490909 3.490909 3.490909z m199.121454 0h132.375273c2.327273 0 3.444364-2.327273 3.444364-3.490909v-97.838545c0-2.327273-2.280727-3.444364-3.444364-3.444364H264.750545c-2.327273 0-3.444364 2.327273-3.444363 3.444364v97.838545c0 2.327273 1.163636 3.490909 3.444363 3.490909z m331.543273-104.773818c2.327273 0 3.444364 1.163636 3.444364 3.444364v97.838545c0 1.163636-1.163636 3.490909-3.444364 3.490909H463.918545c-2.327273 0-3.490909-1.163636-3.490909-3.490909v-97.838545c0-1.117091 1.163636-3.444364 3.490909-3.444364z m398.289455-782.754909c2.327273 0 3.444364 1.163636 3.444363 3.444364v97.838545c0 2.327273-2.327273 3.444364-3.444363 3.444364h-132.375273c-2.327273 0-3.490909-1.117091-3.490909-3.444364V66.56c0-1.163636 1.163636-3.444364 3.490909-3.444364h132.375273z m-199.168 0c2.327273 0 3.444364 1.163636 3.444363 3.444364v97.838545c0 2.327273-1.117091 3.444364-3.444363 3.444364h-132.375273c-2.327273 0-3.444364-1.117091-3.444364-3.444364V66.56c0-1.163636 1.163636-3.444364 3.444364-3.444364h132.375273z m-597.410909 0c2.327273 0 3.444364 1.163636 3.444363 3.444364v97.838545c0 2.327273-1.163636 3.444364-3.444363 3.444364H65.629091c-2.327273 0-3.490909-1.117091-3.490909-3.444364V66.56c-1.117091-1.163636 1.163636-3.444364 3.490909-3.444364h132.375273z m199.121454 0c2.327273 0 3.444364 1.163636 3.444364 3.444364v97.838545c0 2.327273-2.280727 3.444364-3.444364 3.444364H264.750545c-2.327273 0-3.444364-1.117091-3.444363-3.444364V66.56c0-1.163636 1.163636-3.444364 3.444363-3.444364h132.375273z m199.168 0c2.327273 0 3.444364 1.163636 3.444364 3.444364v97.838545c0 2.327273-1.163636 3.444364-3.444364 3.444364H463.918545c-2.327273 0-3.490909-1.117091-3.490909-3.444364V66.56c0-1.163636 1.163636-3.444364 3.490909-3.444364h132.375273z" p-id="17542"></path></svg>