<?xml version="1.0" standalone="no"?><!DOCTYPE svg PUBLIC "-//W3C//DTD SVG 1.1//EN" "http://www.w3.org/Graphics/SVG/1.1/DTD/svg11.dtd"><svg t="1592809049857" class="icon" viewBox="0 0 1024 1024" version="1.1" xmlns="http://www.w3.org/2000/svg" p-id="19780" xmlns:xlink="http://www.w3.org/1999/xlink" width="200" height="200"><defs><style type="text/css"></style></defs><path d="M694.644091 540.031777c-12.652458 13.895763-27.864662 25.304916-41.979832 37.811103-6.728475 5.850848-13.895763 11.262882-20.331696 17.479407A65.163816 65.163816 0 0 0 630.504173 683.889494a52.657629 52.657629 0 0 0 24.500425 14.700255c75.329664 21.501865 151.61009 40.51712 225.84272 65.602629 80.37602 27.133306 139.250174 93.686698 142.614411 188.98238 0.365678 11.774831 0.511949 23.549662 0.365678 35.397628-0.292542 20.477967-14.407712 35.178222-33.569238 35.397628-19.673475 0.146271-936.501305-0.731356-954.200119 0-18.357035 0.65822-34.520001-11.921102-35.397628-30.424407-1.974661-39.785764-0.219407-79.278986 16.821187-116.431869a206.754329 206.754329 0 0 1 108.898902-106.046614c35.763306-15.651018 73.866952-23.403391 111.019835-34.593137 44.393307-13.45695 89.152291-25.597459 133.691869-38.396188 24.719831-7.094153 42.052968-35.470764 38.835001-63.701104a62.677206 62.677206 0 0 0-26.036272-45.856018c-82.423816-60.190595-128.86492-141.883056-141.297971-242.590771-6.289661-50.682968-8.483729-101.951021 7.898644-151.463819C286.181788 87.249303 360.04874 21.573538 471.361117 3.582181c145.832378-23.549662 281.572044 73.866952 309.144163 218.967974 4.388136 22.964577 4.388136 46.806781 6.362797 70.210172-2.925424 93.174749-28.596018 177.35382-92.223986 247.198314z" p-id="19781"></path></svg>