<?xml version="1.0" standalone="no"?><!DOCTYPE svg PUBLIC "-//W3C//DTD SVG 1.1//EN" "http://www.w3.org/Graphics/SVG/1.1/DTD/svg11.dtd"><svg t="1592809609799" class="icon" viewBox="0 0 1024 1024" version="1.1" xmlns="http://www.w3.org/2000/svg" p-id="25952" xmlns:xlink="http://www.w3.org/1999/xlink" width="200" height="200"><defs><style type="text/css"></style></defs><path d="M549.76 462.464V247.808a520.96 520.96 0 0 1-30.72-3.712v-0.448h-1.92 1.856v0.384h-1.472c-0.064 0.064-0.384 0.384-0.768 0.384-11.712 1.536-26.112 3.392-42.432 4.928v213.184H32V291.392c0-26.944 21.504-48.512 48.512-48.512h201.536c-54.144-11.328-94.72-34.496-96.192-77.248C184.32 115.264 241.216 33.856 324.16 52.48c85.696 19.264 145.6 85.504 191.488 142.272C561.856 136.896 627.392 62.336 716.8 50.56c74.752-9.472 136.512 65.152 128.512 114.368-6.72 43.136-48.128 66.624-100.8 77.952h198.976c26.944 0 48.512 21.568 48.512 48.448v171.136H549.76zM333.312 97.088c-41.344-16.256-65.536 1.216-83.008 29.952-9.472 16.256-19.648 37.888-4.544 53.76 39.808 40.896 148.928 37.888 222.144 30.272-34.56-43.072-76.992-91.2-134.592-113.984z m452.096 83.392c28.416-36.352-27.264-112.064-87.104-84.096-57.28 26.88-98.56 70.784-134.208 113.984 30.656 2.688 61.76 3.392 92.416 1.856 37.632-1.536 107.008-4.16 128.896-31.744zM477.312 974.336H116.864a44.096 44.096 0 0 1-44.032-44.224V496.96h404.416v477.376z m473.728-44.288a43.968 43.968 0 0 1-44.032 44.224h-360.32V496.96h404.352v433.088z m0 0" p-id="25953"></path></svg>