<?xml version="1.0" standalone="no"?><!DOCTYPE svg PUBLIC "-//W3C//DTD SVG 1.1//EN" "http://www.w3.org/Graphics/SVG/1.1/DTD/svg11.dtd"><svg t="1593678502587" class="icon" viewBox="0 0 1024 1024" version="1.1" xmlns="http://www.w3.org/2000/svg" p-id="2136" xmlns:xlink="http://www.w3.org/1999/xlink" width="200" height="200"><defs><style type="text/css"></style></defs><path d="M509.50144 981.87264c-260.7104 0-472.82176-212.13184-472.82176-472.82176 0-191.34464 114.0736-362.65984 290.67264-436.4288a38.62528 38.62528 0 0 1 50.3808 20.74624 38.46144 38.46144 0 0 1-20.74624 50.31936 394.9568 394.9568 0 0 0-243.26144 365.3632c0 218.25536 177.50016 395.75552 395.776 395.75552a394.9568 394.9568 0 0 0 365.3632-243.24096 38.5024 38.5024 0 1 1 71.04512 29.5936 471.73632 471.73632 0 0 1-436.4288 290.7136z" fill="#666666" p-id="2137"></path><path d="M509.50144 36.2496c260.64896 0 472.80128 212.13184 472.80128 472.80128a38.54336 38.54336 0 0 1-38.5024 38.52288H509.48096a38.54336 38.54336 0 0 1-38.54336-38.52288V74.752c0-21.25824 17.26464-38.5024 38.54336-38.5024z m33.3824 73.3184v366.08h366.10048C892.86656 281.1904 737.32096 125.66528 542.90432 109.568z" fill="#666666" p-id="2138"></path></svg>