<?xml version="1.0" standalone="no"?><!DOCTYPE svg PUBLIC "-//W3C//DTD SVG 1.1//EN" "http://www.w3.org/Graphics/SVG/1.1/DTD/svg11.dtd"><svg t="1592809747940" class="icon" viewBox="0 0 1025 1024" version="1.1" xmlns="http://www.w3.org/2000/svg" p-id="38284" xmlns:xlink="http://www.w3.org/1999/xlink" width="200.1953125" height="200"><defs><style type="text/css"></style></defs><path d="M1025.130803 509.952V389.12c0-28.16-23.04-51.2-51.2-51.2H240.234803c-28.16 0-51.2 23.04-51.2 51.2v120.32c67.072 1.024 121.344 55.296 121.344 122.88 0 67.072-54.272 121.856-121.344 122.88V875.52c0 28.16 23.04 51.2 51.2 51.2h733.696c28.16 0 51.2-23.04 51.2-51.2v-119.808c-68.096 0-122.88-54.784-122.88-122.88s54.784-122.88 122.88-122.88zM731.242803 747.52H482.922803c-16.896 0-30.72-13.824-30.72-30.72s13.824-30.72 30.72-30.72h248.32c16.896 0 30.72 13.824 30.72 30.72 0.512 16.384-13.312 30.72-30.72 30.72z m0-167.424H482.922803c-16.896 0-30.72-13.824-30.72-30.72s13.824-30.72 30.72-30.72h248.32c16.896 0 30.72 13.824 30.72 30.72s-13.312 30.72-30.72 30.72z" p-id="38285"></path><path d="M158.314803 724.992c61.44 0 121.344-24.576 121.344-92.16 3.584-65.024-61.44-91.136-121.344-92.16V358.4c0-28.16 23.04-51.2 51.2-51.2h643.072l-65.024-176.64c-9.728-26.624-39.424-39.936-65.536-30.208L33.386803 354.304C6.762803 364.032-6.549197 393.728 3.178803 419.84l155.136 420.864v-115.712z" p-id="38286"></path></svg>