<?xml version="1.0" standalone="no"?><!DOCTYPE svg PUBLIC "-//W3C//DTD SVG 1.1//EN" "http://www.w3.org/Graphics/SVG/1.1/DTD/svg11.dtd"><svg t="1592809549583" class="icon" viewBox="0 0 1024 1024" version="1.1" xmlns="http://www.w3.org/2000/svg" p-id="22859" xmlns:xlink="http://www.w3.org/1999/xlink" width="200" height="200"><defs><style type="text/css"></style></defs><path d="M795.743 533.151l-38.559-66.79V314.235h91.955c21.699 0 24.504 10.02 30.653 30.438 15.933 52.915 26.516 118.641 30.648 182.548l-114.697 5.93z m-99.86-66.791H573.274V314.235h122.609V466.36z m-183.911 0H328.067V314.235h183.905V466.36z m-245.212 0H113.503V314.235H266.76V466.36z m671.053-149.729c-11.295-37.525-46.438-63.252-86.262-63.252h-741.11c-32.159 0-58.24 25.615-58.24 57.211v383.918c0 21.053 17.388 38.154 38.83 38.154h34.135c-3.389-9.672-5.32-20.014-5.32-30.812 0-52.342 43.208-94.766 96.466-94.766 53.289 0 96.486 42.424 96.486 94.766 0 10.798-1.925 21.14-5.32 30.812h408.166c-3.389-9.672-5.32-20.014-5.32-30.812 0-52.342 43.192-94.766 96.471-94.766s96.476 42.424 96.476 94.766c0 10.798-1.935 21.14-5.315 30.812h31.918c20.48 0 37.407-15.555 38.743-35.635 8.446-127.074 0.699-275.84-30.804-380.396zM215.77 634.004c-18.202 0-36.301 7.378-49.167 20.014-12.872 12.621-20.367 30.418-20.367 48.302s7.491 35.635 20.367 48.307c12.872 12.621 30.966 19.994 49.167 19.994 18.207 0 36.301-7.373 49.172-19.994 12.872-12.672 20.372-30.423 20.372-48.307s-7.501-35.681-20.372-48.302c-12.871-12.636-30.965-20.014-49.172-20.014z m591.181 0c-18.207 0-36.301 7.378-49.173 20.014-12.872 12.641-20.367 30.418-20.367 48.302s7.496 35.635 20.367 48.307c12.872 12.621 30.966 19.978 49.173 19.978 18.202 0 36.296-7.357 49.167-19.978 12.872-12.672 20.362-30.423 20.362-48.307s-7.491-35.666-20.362-48.302c-12.872-12.636-30.966-20.014-49.167-20.014z" p-id="22860"></path></svg>