<?xml version="1.0" standalone="no"?><!DOCTYPE svg PUBLIC "-//W3C//DTD SVG 1.1//EN" "http://www.w3.org/Graphics/SVG/1.1/DTD/svg11.dtd"><svg t="1592809563315" class="icon" viewBox="0 0 1157 1024" version="1.1" xmlns="http://www.w3.org/2000/svg" p-id="23587" xmlns:xlink="http://www.w3.org/1999/xlink" width="225.9765625" height="200"><defs><style type="text/css"></style></defs><path d="M552.043 279.365s21.102-32.365 0-53.468c-21.102-21.102-53.424-35.615-53.424-35.615s-32.499-34.993-53.423 0c-20.924 34.948-35.616 71.231-35.616 71.231l106.847 71.276 35.616-53.424zM35.616 991.945L213.694 849.44l-124.655-89.04-53.423 231.547zM391.772 297.13L106.847 742.592l124.655 71.231 267.117-463.226-106.847-53.424z m-160.27 195.975H0v124.7h160.27l71.232-124.7z m694.505 0l71.232 124.7h160.27v-124.7H926.007z m-480.811 0l-71.231 124.7h409.58l-71.232-124.656H445.196z m534.235 231.59s-82.361 28.627-71.231 71.277c11.13 42.694 57.474 88.86 89.039 106.891 31.564 18.075 46.345 35.037 53.423 71.276 3.473 24.887 33.078 10.24 35.616-53.423 2.538-63.708-3.606-229.143-106.847-196.02z m17.808-35.615l-71.232-106.891-89.039 53.423L908.2 742.547l89.039-53.468zM605.466 12.114s-17.585-27.157-53.423 0c-35.838 27.113-53.424 35.616-53.424 35.616s-14.825 12.955 0 35.616C513.444 106.05 801.353 600.04 801.353 600.04L908.2 546.616 605.466 12.07z" p-id="23588"></path></svg>