<?xml version="1.0" standalone="no"?><!DOCTYPE svg PUBLIC "-//W3C//DTD SVG 1.1//EN" "http://www.w3.org/Graphics/SVG/1.1/DTD/svg11.dtd"><svg t="1592809906033" class="icon" viewBox="0 0 1024 1024" version="1.1" xmlns="http://www.w3.org/2000/svg" p-id="48634" xmlns:xlink="http://www.w3.org/1999/xlink" width="200" height="200"><defs><style type="text/css"></style></defs><path d="M621.486 288.522a24.371 24.371 0 0 0 0.901-28.385c-3.604-4.956-86.507-122.552-242.401-122.552-156.344 0-236.094 119.398-239.247 124.805-5.858 8.56-4.957 20.275 1.802 28.385l165.355 194.642c0.901 0.901 2.253 1.802 3.154 2.703l-39.198 351.437a40.202 40.202 0 0 0 8.11 32.891c10.813 13.517 29.737 20.726 56.77 20.726h105.882c27.934 0 58.573-14.869 58.573-46.858 0-21.627-29.737-279.798-39.2-359.547 0.451-0.45 1.353-0.901 1.353-1.352l158.146-196.895zM334.93 443.965l-20.726-86.057c-3.154-12.615 4.956-25.23 17.572-28.385a23.306 23.306 0 0 1 28.385 17.572l23.43 97.772-48.661-0.902z m14.418 128.86l5.407-47.308h64.88l5.407 47.309h-75.694z m100.925-216.719l-16.22 87.86h-48.21l17.572-96.42c2.253-12.616 14.869-21.177 27.484-18.924 13.066 2.253 21.627 14.869 19.374 27.484z m409.109 85.607h-9.462V188.948c0-44.605-22.077-51.363-35.594-51.363-17.572 0-32.891 12.615-54.518 29.737-10.813 8.56-22.528 18.022-35.144 26.132-37.847 23.88-50.012 59.474-50.913 77.947v169.861h-15.77c-18.022 0-32.44 14.869-32.44 32.891v385.229c0 18.022 14.418 32.89 32.44 32.89h201.851c18.023 0 32.44-14.868 32.44-32.89V474.153c0-17.572-14.868-32.44-32.89-32.44zM816.579 769.27c0 13.066-10.363 23.429-23.43 23.429a23.265 23.265 0 0 1-23.429-23.43V555.705c0-13.066 10.363-23.429 23.43-23.429 13.066 0 23.429 10.363 23.429 23.43V769.27z" p-id="48635"></path></svg>