<?xml version="1.0" standalone="no"?><!DOCTYPE svg PUBLIC "-//W3C//DTD SVG 1.1//EN" "http://www.w3.org/Graphics/SVG/1.1/DTD/svg11.dtd"><svg t="1592809807326" class="icon" viewBox="0 0 1024 1024" version="1.1" xmlns="http://www.w3.org/2000/svg" p-id="44398" xmlns:xlink="http://www.w3.org/1999/xlink" width="200" height="200"><defs><style type="text/css"></style></defs><path d="M145.681917 451.658007v-119.71658h68.685876a61.914029 61.914029 0 1 0 3.869627-77.271611H145.681917v-56.95607A76.666982 76.666982 0 0 1 221.865195 120.925838h332.062353v176.793576l137.73453-38.817194 145.111006 48.370336V120.925838h26.361833a76.666982 76.666982 0 0 1 76.666981 76.666982v749.740198a76.666982 76.666982 0 0 1-76.666981 76.666982h-640.906944A76.666982 76.666982 0 0 1 145.681917 946.970241V931.128956h68.685876a61.793103 61.793103 0 1 0 3.869627-77.271611H145.681917V734.019839h68.685876a61.793103 61.793103 0 1 0 3.869627-77.27161H145.681917V528.929617h68.685876a61.914029 61.914029 0 1 0 3.869627-77.27161z" p-id="44399"></path><path d="M787.556267 0v237.861124l-95.773264-39.179971-90.694378 31.682569V0h186.467642zM553.927548 8.948512v95.289561l-50.063298 1.088332L553.927548 8.948512zM118.231752 311.50496a14.511101 14.511101 0 0 1 0-28.901276h154.664147a14.511101 14.511101 0 1 1 0 28.901276zM118.231752 506.074634a14.511101 14.511101 0 0 1 0-28.901275h154.664147a14.511101 14.511101 0 1 1 0 28.901275zM99.730098 711.164856a14.511101 14.511101 0 1 1 0-28.901275H254.515172a14.511101 14.511101 0 1 1 0 28.901275zM99.730098 910.571564a14.511101 14.511101 0 1 1 0-28.901276H254.515172a14.511101 14.511101 0 1 1 0 28.901276z" p-id="44400"></path></svg>