<?xml version="1.0" standalone="no"?><!DOCTYPE svg PUBLIC "-//W3C//DTD SVG 1.1//EN" "http://www.w3.org/Graphics/SVG/1.1/DTD/svg11.dtd"><svg t="1592809348894" class="icon" viewBox="0 0 1024 1024" version="1.1" xmlns="http://www.w3.org/2000/svg" p-id="5006" xmlns:xlink="http://www.w3.org/1999/xlink" width="200" height="200"><defs><style type="text/css"></style></defs><path d="M670.72 209.92c-130.56 0-243.2 74.24-299.52 181.76 17.92 5.12 35.84 10.24 53.76 17.92 38.4 15.36 71.68 38.4 102.4 69.12 30.72 30.72 53.76 64 69.12 102.4 17.92 38.4 25.6 81.92 25.6 125.44 0 43.52-7.68 84.48-25.6 125.44-5.12 15.36-12.8 28.16-23.04 43.52 30.72 10.24 64 15.36 97.28 15.36 186.88 0 337.92-151.04 337.92-337.92 2.56-192-151.04-343.04-337.92-343.04M419.84 25.6c0 53.76 28.16 107.52 76.8 138.24 48.64 33.28 107.52 35.84 158.72 15.36 0-53.76-28.16-107.52-76.8-138.24C529.92 7.68 471.04 5.12 419.84 25.6m0 0zM691.2 181.76c33.28 12.8 71.68 10.24 102.4-10.24 30.72-20.48 48.64-53.76 48.64-89.6-33.28-12.8-71.68-10.24-102.4 10.24-30.72 20.48-48.64 53.76-48.64 89.6M345.6 732.16l107.52 128c10.24-10.24 20.48-20.48 28.16-33.28 17.92-25.6 28.16-53.76 33.28-81.92-56.32-5.12-97.28-7.68-125.44-10.24-20.48 0-33.28-2.56-43.52-2.56m-261.12-25.6c0 56.32 23.04 97.28 38.4 122.88l128-107.52-166.4-15.36m215.04-217.6c-43.52 0-89.6 15.36-122.88 40.96l110.08 130.56 12.8-171.52m0 0z" fill="" p-id="5007"></path><path d="M348.16 693.76l17.92 2.56 153.6 12.8c0-46.08-12.8-89.6-38.4-125.44-38.4 33.28-87.04 74.24-117.76 99.84-7.68 2.56-10.24 5.12-15.36 10.24m0 0z" fill="" p-id="5008"></path><path d="M302.08 995.84c102.4 0 192-53.76 243.2-133.12 28.16-46.08 46.08-99.84 46.08-156.16 0-140.8-99.84-256-232.96-284.16-17.92-2.56-38.4-5.12-56.32-5.12C143.36 417.28 12.8 547.84 12.8 706.56c0 158.72 128 289.28 289.28 289.28m0-540.16c15.36 0 30.72 2.56 43.52 5.12 117.76 20.48 207.36 122.88 207.36 248.32 0 51.2-15.36 99.84-43.52 140.8-46.08 66.56-120.32 110.08-207.36 110.08C163.84 957.44 51.2 844.8 51.2 706.56s112.64-250.88 250.88-250.88m0 0z" fill="" p-id="5009"></path><path d="M261.12 919.04l15.36-166.4-128 107.52c30.72 30.72 69.12 51.2 112.64 58.88M145.92 555.52c-30.72 30.72-51.2 71.68-58.88 115.2l166.4 15.36-107.52-130.56m276.48 330.24l-107.52-130.56-15.36 166.4c56.32 2.56 99.84-20.48 122.88-35.84m33.28-332.8c-30.72-30.72-71.68-53.76-117.76-61.44v2.56l-5.12 48.64-10.24 117.76c7.68-5.12 15.36-12.8 23.04-20.48 33.28-23.04 76.8-61.44 110.08-87.04m0 0z" fill="" p-id="5010"></path></svg>