<?xml version="1.0" standalone="no"?><!DOCTYPE svg PUBLIC "-//W3C//DTD SVG 1.1//EN" "http://www.w3.org/Graphics/SVG/1.1/DTD/svg11.dtd"><svg t="1592809833137" class="icon" viewBox="0 0 1024 1024" version="1.1" xmlns="http://www.w3.org/2000/svg" p-id="47107" xmlns:xlink="http://www.w3.org/1999/xlink" width="200" height="200"><defs><style type="text/css"></style></defs><path d="M806.769 277.3H659.108v-94.496c0-26.01-22.16-47.267-49.214-47.267H413.02c-27.074 0-49.234 21.278-49.234 47.267V277.3h-147.66c-54.15 0-98.427 42.517-98.427 94.515v378.02c0 51.999 44.277 94.495 98.426 94.495H806.77c54.128 0 98.427-42.496 98.427-94.495v-378.02c0-51.998-44.299-94.515-98.427-94.515z m-393.77-94.496h196.895V277.3H413v-94.495z m295.322 425.268h-147.66v141.762h-98.427V608.072H314.573v-94.495h147.66V371.814h98.427v141.763h147.661v94.495z" p-id="47108"></path></svg>