<?xml version="1.0" standalone="no"?><!DOCTYPE svg PUBLIC "-//W3C//DTD SVG 1.1//EN" "http://www.w3.org/Graphics/SVG/1.1/DTD/svg11.dtd"><svg t="1592809580065" class="icon" viewBox="0 0 1024 1024" version="1.1" xmlns="http://www.w3.org/2000/svg" p-id="24323" xmlns:xlink="http://www.w3.org/1999/xlink" width="200" height="200"><defs><style type="text/css"></style></defs><path d="M702.7 60.945H321.283c-57.463 0-104.022 46.591-104.022 104.018v693.455c0 57.427 46.56 104.019 104.022 104.019H702.7c57.463 0 104.023-46.592 104.023-104.02V164.964c0-57.426-46.56-104.018-104.024-104.018zM477.316 95.618h69.35c9.582 0 17.336 7.754 17.336 17.336 0 9.582-7.754 17.336-17.337 17.336h-69.349c-9.581 0-17.336-7.754-17.336-17.336 0-9.582 7.755-17.336 17.336-17.336z m34.675 824.46c-24.482 0-44.324-19.842-44.324-44.323 0-24.48 19.843-44.323 44.324-44.323 24.482 0 44.325 19.843 44.325 44.323 0 24.482-19.843 44.322-44.325 44.322z m225.381-148.341c0 9.582-7.753 17.335-17.336 17.335h-416.09c-9.583 0-17.338-7.753-17.338-17.335V182.3c0-9.582 7.755-17.336 17.338-17.336h416.09c9.583 0 17.336 7.755 17.336 17.336v589.437z" p-id="24324"></path></svg>