<?xml version="1.0" standalone="no"?><!DOCTYPE svg PUBLIC "-//W3C//DTD SVG 1.1//EN" "http://www.w3.org/Graphics/SVG/1.1/DTD/svg11.dtd"><svg t="1592809384945" class="icon" viewBox="0 0 1024 1024" version="1.1" xmlns="http://www.w3.org/2000/svg" p-id="8706" xmlns:xlink="http://www.w3.org/1999/xlink" width="200" height="200"><defs><style type="text/css"></style></defs><path d="M906.222594 275.199369a42.666569 42.666569 0 0 0-31.573261-13.653302h-149.332991v-37.119915C725.316342 98.559774 631.663224 0 511.983498 0S298.650653 98.559774 298.650653 224.426152v38.399912H149.317662A42.666569 42.666569 0 0 0 117.744401 277.332698 42.666569 42.666569 0 0 0 106.651093 309.332624l54.399876 559.785384C162.330966 942.71784 226.757485 1023.997653 312.730621 1023.997653h399.145752a150.826321 150.826321 0 0 0 151.46632-143.573004L917.315902 307.625962a42.666569 42.666569 0 0 0-11.093308-32.426593zM383.983791 224.426152c0-78.71982 56.106538-140.586344 127.999707-140.586344s127.999707 61.653192 127.999706 140.586344v37.546581H383.983791v-37.546581z" fill="#444444" p-id="8707"></path></svg>