<?xml version="1.0" standalone="no"?><!DOCTYPE svg PUBLIC "-//W3C//DTD SVG 1.1//EN" "http://www.w3.org/Graphics/SVG/1.1/DTD/svg11.dtd"><svg t="1592809519812" class="icon" viewBox="0 0 1181 1024" version="1.1" xmlns="http://www.w3.org/2000/svg" p-id="20225" xmlns:xlink="http://www.w3.org/1999/xlink" width="230.6640625" height="200"><defs><style type="text/css"></style></defs><path d="M967.89754231 602.01616835a1133.24430585 1133.24430585 0 0 0-191.21248126-57.44326114c50.65536797-30.34817576 81.34464025-82.88573027 81.40185178-139.36001659V306.75404023C858.08691283 215.48356366 779.1944017 141.21142578 682.16294249 141.21142578 631.73497219 141.21142578 583.7033679 161.74746406 550.44609507 197.34316719a159.32466387 159.32466387 0 0 0-44.20929551 109.41159724v98.4581262c0 55.61828614 29.37775254 104.79122401 74.15771484 134.85261797-108.21377635 17.56972969-210.95045507 59.66871679-215.74246287 61.60811485-29.14890646 11.29529178-51.11161173 42.09898711-51.11161173 71.81856035v118.82397831h0.57066679c4.27855253 30.63350917 32.11593926 53.56446504 65.03066718 53.56446504h573.46725763c28.69266272 0 54.30604219-17.68342853 63.88933361-43.92396212l1.65478884-4.67830895V673.4936322c0-29.89120781-22.01919258-60.80932617-50.31354725-71.47673965" p-id="20226"></path><path d="M392.71900852 518.78861738c35.53849161-10.09747088 52.36664415-15.74403048 52.36664414-15.74403048s23.04610312-9.24147069 16.94185138-27.72441209c-14.26087617-24.70016778-24.35762286-43.80953908-24.35762286-115.91415704V265.7391752s6.10352754-45.63523829 25.38453341-49.91379082c1.54036582-1.54036582 1.82497502-3.76509726 1.14133358-6.27443791a32.68660605 32.68660605 0 0 0-29.89120782-18.02669763c-74.44304824 0.11442304-134.85261798 55.04834354-134.85261798 122.75998592v77.92281211c0 30.23302853 12.54887581 57.6148957 32.62867034 79.06342148A738.38271797 738.38271797 0 0 0 202.36180325 522.60947775C179.14334138 532.53603828 162.54475911 556.49462891 162.54475911 580.28230917v84.99603869c0 16.31469727 14.54620957 29.5486629 32.51497149 29.54866289 16.4291203-0.11369884 30.17726542-11.40826643 31.83133007-26.35423243 0.11369884-1.08412207 0.68436563-2.1103084 0.68436563-3.25164198v-13.46281171c2.62376368-28.0655086 14.14717733-78.89178693 62.00714707-102.67946721 7.30207265-2.96630859 15.11687636-5.87540567 23.10331464-8.78450274 26.81047618-6.84582889 53.45004201-13.97626699 80.03312051-21.5057373" p-id="20227"></path></svg>